# Blender 4.2.0
# www.blender.org
mtllib windowsOutside.mtl
o Cube
v 0.039317 -0.896267 1.540601
v 0.039317 0.896267 1.540601
v 0.039317 -0.896267 -1.331162
v 0.039317 0.896267 -1.331162
v -0.039317 -0.896267 1.540601
v -0.039317 0.896267 1.540601
v -0.039317 -0.896267 -1.331162
v -0.039317 0.896267 -1.331162
v 0.039317 -0.157862 0.656869
v 0.039317 0.426025 0.656869
v 0.039317 0.426025 -0.348603
v 0.039317 -0.157862 -0.348603
v -0.039317 0.426025 0.656869
v -0.039317 -0.157862 -0.348603
v -0.039317 0.426025 -0.348603
v -0.039317 -0.157862 0.656869
v 0.473233 -0.157862 0.656869
v 0.473233 0.426025 0.656869
v 0.473233 0.426025 -0.348603
v 0.473233 -0.157862 -0.348603
v 0.473233 -0.157862 0.465908
v 0.473233 -0.044886 0.465908
v 0.473233 -0.044886 -0.157642
v 0.473233 -0.157862 -0.157642
vn 1.0000 -0.0000 -0.0000
vn -0.0000 -0.0000 -1.0000
vn -1.0000 -0.0000 -0.0000
vn -0.0000 -0.0000 1.0000
vn -0.0000 -1.0000 -0.0000
vn -0.0000 1.0000 -0.0000
vt 0.559417 0.164464
vt 0.625000 0.250000
vt 0.375000 0.250000
vt 0.375000 0.000000
vt 0.625000 0.000000
vt 0.559417 0.076933
vt 0.477983 0.076933
vt 0.477983 0.164464
vt 0.625000 0.500000
vt 0.375000 0.500000
vt 0.625000 0.750000
vt 0.375000 0.750000
vt 0.559417 0.585536
vt 0.477983 0.585536
vt 0.477983 0.673067
vt 0.559417 0.673067
vt 0.625000 1.000000
vt 0.375000 1.000000
vt 0.125000 0.500000
vt 0.125000 0.750000
vt 0.875000 0.500000
vt 0.875000 0.750000
vt 0.625000 0.366346
vt 0.625000 0.383654
vt 0.375000 0.383654
vt 0.375000 0.366346
vt 0.375000 0.883654
vt 0.375000 0.866346
vt 0.625000 0.866346
vt 0.625000 0.883654
vt 0.241346 0.500000
vt 0.258654 0.500000
vt 0.258654 0.750000
vt 0.241346 0.750000
vt 0.741346 0.500000
vt 0.758654 0.500000
vt 0.758654 0.750000
vt 0.741346 0.750000
vt 0.000000 0.000000
s 0
f 11/1/1 12/8/1 9/7/1 10/6/1 2/5/1 1/4/1 3/3/1 4/2/1
f 2/5/1 10/6/1 11/1/1 4/2/1
f 3/3/2 7/10/2 8/9/2 4/2/2
f 6/11/3 13/16/3 16/15/3 14/14/3 15/13/3 8/9/3 7/10/3 5/12/3
f 15/13/3 13/16/3 6/11/3 8/9/3
f 5/12/4 1/18/4 2/17/4 6/11/4
f 3/19/5 1/20/5 5/12/5 7/10/5
f 8/9/6 6/11/6 2/22/6 4/21/6
f 15/23/4 14/26/4 12/25/4 11/24/4
f 16/27/2 13/30/2 10/29/2 9/28/2
f 14/31/6 16/34/6 9/33/6 12/32/6
f 11/35/5 10/38/5 13/37/5 15/36/5
f 12/8/4 20/8/4 19/1/4 11/1/4
f 11/1/5 19/1/5 18/6/5 10/6/5
f 10/6/2 18/6/2 17/7/2 9/7/2
f 19/1/3 23/1/3 22/6/3 18/6/3
f 18/6/3 22/6/3 21/7/3 17/7/3
f 20/8/3 24/8/3 23/1/3 19/1/3
f 17/39/6 21/39/6 24/39/6 20/39/6 12/39/6 9/39/6
o Cube.001
v -0.568445 -0.172292 0.731265
v -0.568445 -0.110998 0.731265
v -0.568445 -0.172292 -0.406890
v -0.568445 -0.110998 -0.406890
v 0.191121 -0.172292 0.731265
v 0.191121 -0.110998 0.731265
v 0.191121 -0.172292 -0.406890
v 0.191121 -0.110998 -0.406890
vn -1.0000 -0.0000 -0.0000
vn -0.0000 -0.0000 -1.0000
vn 1.0000 -0.0000 -0.0000
vn -0.0000 -0.0000 1.0000
vn -0.0000 -1.0000 -0.0000
vn -0.0000 1.0000 -0.0000
vt 0.375000 0.000000
vt 0.625000 0.000000
vt 0.625000 0.250000
vt 0.375000 0.250000
vt 0.625000 0.500000
vt 0.375000 0.500000
vt 0.625000 0.750000
vt 0.375000 0.750000
vt 0.625000 1.000000
vt 0.375000 1.000000
vt 0.125000 0.500000
vt 0.125000 0.750000
vt 0.875000 0.500000
vt 0.875000 0.750000
s 0
f 25/40/7 26/41/7 28/42/7 27/43/7
f 27/43/8 28/42/8 32/44/8 31/45/8
f 31/45/9 32/44/9 30/46/9 29/47/9
f 29/47/10 30/46/10 26/48/10 25/49/10
f 27/50/11 31/45/11 29/47/11 25/51/11
f 32/44/12 28/52/12 26/53/12 30/46/12
